# xmcd CD database file
#
# Track frame offsets:
#	150
#	23490
#	44098
#	61426
#	80351
#	95795
#	113603
#	134814
#	158923
#	177098
#	197345
#	219450
#
# Disc length: 3112 seconds
#
# Revision: 0
# Processed by: cddbd v1.5.2PL0 Copyright (c) Steve Scherf et al.
# Submitted via: CDex 1.51
#
DISCID=a30c260c
DTITLE=Sherri Roberts - The Sky Could Send You
DYEAR=2005
DGENRE=Jazz
TTITLE0=You're Looking At Me
TTITLE1=Jamaica Farewell
TTITLE2=Before
TTITLE3=Let Me
TTITLE4=Tell Me My Name
TTITLE5=The Moon's a Harsh Mistress
TTITLE6=Return to Paradise
TTITLE7=You're Nearer
TTITLE8=Do It the Hard Way
TTITLE9=Slow Hot Wind
TTITLE10=Far from New York
TTITLE11=Por Toda Minha Vida [For All My Life]
EXTD=YEAR: 2005
EXTT0=
EXTT1=
EXTT2=
EXTT3=
EXTT4=
EXTT5=
EXTT6=
EXTT7=
EXTT8=
EXTT9=
EXTT10=
EXTT11=
PLAYORDER=
